Motion_pl04
version=1
nRows=5
nColumns=43
inDegrees=yes
endheader
time	pelvis_tilt	pelvis_list	pelvis_rotation	pelvis_tx	pelvis_ty	pelvis_tz	hip_flexion_r	hip_adduction_r	hip_rotation_r	knee_angle_r	ankle_angle_r	subtalar_angle_r	mtp_angle_r	hip_flexion_l	hip_adduction_l	hip_rotation_l	knee_angle_l	ankle_angle_l	subtalar_angle_l	mtp_angle_l	lumbar_extension	lumbar_bending	lumbar_rotation	neck_flexion	neck_lateral_bending	neck_rotation	arm_flex_r	arm_add_r	arm_rot_r	elbow_flex_r	pro_sup_r	wrist_flex_r	wrist_dev_r	hand_finger_flex_r	arm_flex_l	arm_add_l	arm_rot_l	elbow_flex_l	pro_sup_l	wrist_flex_l	wrist_dev_l	hand_finger_flex_l
      1.73500000	      4.80251526	    -10.70223401	     86.12035257	     -0.00785034	      0.82353725	      0.39140112	     50.03251531	      2.75708229	     -1.23787633	    -66.46891817	     16.33867545	      7.75908640	     15.88462609	     47.11831343	    -10.13628819	     -4.42062301	    -70.73088070	     16.97085032	      4.19936829	     33.12896455	    -39.10119810	      3.33260417	      1.59951281	     24.15031594	     -4.55342005	      0.99980322	     21.23015326	    -26.49476607	     10.62144374	     68.79658603	    139.54780553	      1.02479971	     -3.09798702	    -28.40588003	      9.56436555	    -28.98898282	     -1.23422319	     68.14963255	    126.40672749	     -4.12620047	     -3.47507940	     16.60388605
      1.73750000	      4.81682802	    -10.75435552	     86.11848349	     -0.00791549	      0.82526657	      0.39088449	     49.75973954	      2.79522475	     -1.17630008	    -65.94712420	     16.25839216	      7.75379469	     15.87379179	     46.86733784	    -10.09887212	     -4.39775823	    -70.22996434	     16.89641776	      4.21543484	     33.09128272	    -38.79713499	      3.37391497	      1.55487690	     24.10332853	     -4.53573269	      0.97775831	     20.65613753	    -26.57827920	     10.56426849	     68.66055498	    139.54658421	      1.06147710	     -3.10626999	    -28.37449144	      8.93423700	    -28.91440608	     -1.19542058	     67.99145721	    126.43938170	     -4.04965661	     -3.51870503	     16.60148334
      1.74000000	      4.85010563	    -10.60223508	     86.10254601	     -0.00792139	      0.82737114	      0.38998436	     49.23346655	      2.86471083	     -1.10669668	    -65.42534243	     16.13634171	      7.63440057	     15.87454734	     46.37850192	    -10.07286975	     -4.36194676	    -69.77789469	     16.82160063	      4.18705070	     32.97295066	    -38.66650968	      3.39854493	      1.55274702	     23.84231556	     -4.49740390	      0.87765020	     19.93877119	    -26.27666701	      9.89511189	     68.36546289	    139.47773912	      1.03772030	     -3.11562980	    -28.30446287	      8.28436085	    -28.48218415	     -1.62747065	     67.69966529	    126.49162674	     -3.96031690	     -3.74270997	     16.50163425
      1.74250000	      4.86339167	    -10.65000863	     86.09848242	     -0.00795097	      0.82909125	      0.38944974	     48.96135925	      2.91066801	     -1.04890336	    -64.91125700	     16.05479738	      7.61893420	     15.86608297	     46.11697065	    -10.04134707	     -4.34181227	    -69.26466624	     16.74787924	      4.20262095	     32.93354795	    -38.36448157	      3.43903071	      1.50737300	     23.79013304	     -4.48474882	      0.84579236	     19.35781021	    -26.36174267	      9.84557116	     68.23746538	    139.47966756	      1.07512317	     -3.12711366	    -28.27365044	      7.65867868	    -28.40518303	     -1.59400679	     67.54188375	    126.52924401	     -3.87494384	     -3.78374572	     16.50190607
      1.74500000	      4.89566121	    -10.46807054	     86.07224402	     -0.00794504	      0.83122927	      0.38850632	     48.40022403	      2.98931016	     -0.97277423	    -64.39263578	     15.92749451	      7.45458934	     15.87058621	     45.58429118	    -10.02288407	     -4.32809656	    -68.80160470	     16.68788785	      4.16428079	     32.80616355	    -38.25873594	      3.45478206	      1.51979331	     23.48478659	     -4.46795892	      0.69671975	     18.64145805	    -26.07840966	      9.19399678	     67.95689178	    139.42685355	      1.03778784	     -3.13518184	    -28.21295717	      7.02593873	    -27.94468603	     -2.05314043	     67.25586149	    126.59505612	     -3.77240111	     -3.97644594	     16.39853263
